<?xml version="1.0" encoding="utf-8"?>
<!-- Generator: Adobe Illustrator 24.1.0, SVG Export Plug-In . SVG Version: 6.00 Build 0)  -->
<svg version="1.0" id="Layer_1" xmlns="http://www.w3.org/2000/svg" xmlns:xlink="http://www.w3.org/1999/xlink" x="0px" y="0px"
	 width="1080px" height="1080px" viewBox="0 0 1080 1080" style="enable-background:new 0 0 1080 1080;" xml:space="preserve">
<path d="M374.4,503.9h38.7c18.1,0,30.3,6,30.3,22.4c0,18.9-11.7,25.1-30.3,25.1h-38.7V503.9z M374.4,570.3h39.6
	c24.1,0,35.6,6.7,35.6,25.5c0,18.1-11.5,26.5-34.1,26.5h-41.1V570.3z M351.8,642.4h63.5c32.2,0,57.5-12.6,57.5-46.8
	c0-19.8-9.1-31-24.3-37.5c11.2-6.4,17.9-19.6,17.9-34.9c0-32-26.7-39.4-56.6-39.4h-58V642.4z"/>
<path d="M263.6,507.3l29.6,80.9h-58.7L263.6,507.3z M191.5,642.4h23.6l12.2-34.4h73l12.7,34.4h24.8l-60.4-158.5h-26.3L191.5,642.4z"
	/>
<polygon points="101.8,483.9 79.2,483.9 79.2,642.4 186.8,642.4 186.8,622.4 101.8,622.4 "/>
<polygon points="844.9,438.6 844.9,280.1 822.2,280.1 822.2,414.8 748.7,280.1 715.5,280.1 715.5,438.6 738.2,438.6 738.2,303.7 
	811.7,438.6 "/>
<path d="M618.2,277.3c-45.1,0-74.7,32-74.7,81.9c0,48.9,26.5,82.4,72.8,82.4c21.5,0,40.3-6.7,50.8-23.2l1,20.3H686v-82.1h-64v20.1
	h42.5v3.8c0,33.2-25.8,41.5-47.3,41.5c-29.8,0-50.6-22.9-50.6-62.8c0-41.1,22.2-62.3,50.6-62.3c25.5,0,40.3,14.1,45.6,32l22-3.1
	C677.4,295.9,651.6,277.3,618.2,277.3"/>
<rect x="497.2" y="280.1" width="22.7" height="158.5"/>
<path d="M353.4,320.7c0,27,22.2,38.7,44.2,43.4l20.1,4.3c20.1,4.3,34.6,10.7,34.6,27.7c0,15.8-13.8,25.8-37.5,25.8
	c-25.5,0-40.3-12.4-44.6-34.4l-22,3.1c4.3,30.1,28.2,50.8,66.1,50.8c32,0,61.1-16,61.1-47.5c0-32.2-29.4-40.8-53.9-46.3l-18.6-4.1
	c-15-3.3-26.3-9.6-26.3-23.6c0-18.1,21.7-23.2,34.1-23.2c16.2,0,34.6,6,39.9,25.8l22-3.1c-6.2-28.9-32-42.2-60.9-42.2
	C385.6,277.3,353.4,290.1,353.4,320.7"/>
<polygon points="231.5,438.6 340.6,438.6 340.6,418.6 254.2,418.6 254.2,367 335.6,367 335.6,347 254.2,347 254.2,300.2 
	340.6,300.2 340.6,280.1 231.5,280.1 "/>
<path d="M79.2,280.1v158.5h36.8c51.1,0,92.4-17.9,92.4-79.3s-41.3-79.3-92.4-79.3H79.2z M185.1,359.4c0,54.7-36.5,59.2-69.9,59.2
	h-13.4V300.2h13.4C148.6,300.2,185.1,304.7,185.1,359.4"/>
<polygon points="918.1,76.3 891.6,76.3 861.8,209.1 830.7,76.3 805.9,76.3 846.7,234.8 874.2,234.8 904.7,105 935.8,234.8 
	963.2,234.8 1003.3,76.3 979.7,76.3 949.9,209.1 "/>
<path d="M742,99.7l29.6,80.9h-58.7L742,99.7z M669.9,234.8h23.6l12.2-34.4h73l12.7,34.4h24.8L755.9,76.3h-26.3L669.9,234.8z"/>
<path d="M545.6,116.9c0,27,22.2,38.7,44.2,43.4l20.1,4.3c20.1,4.3,34.6,10.7,34.6,27.7c0,15.8-13.8,25.8-37.5,25.8
	c-25.5,0-40.3-12.4-44.6-34.4l-22,3.1c4.3,30.1,28.2,50.8,66.1,50.8c32,0,61.1-16,61.1-47.5c0-32.2-29.4-40.8-53.9-46.3l-18.6-4.1
	c-15-3.3-26.3-9.6-26.3-23.6c0-18.1,21.7-23.2,34.1-23.2c16.2,0,34.6,6,39.9,25.8l22-3.1c-6.2-28.9-32-42.2-60.9-42.2
	C577.8,73.5,545.6,86.4,545.6,116.9"/>
<path d="M462,96.4c23.6,0,42,1.9,42,26.7c0,24.8-18.4,26.7-42,26.7h-28.2V96.4H462z M507.3,234.8h25.3l-36.5-68.8
	c19.1-5.7,31-18.1,31-43.4c0-38.4-27.7-46.3-66.8-46.3h-49.2v158.5h22.7v-64.9h26.5c4.3,0,8.6,0,12.7-0.2L507.3,234.8z"/>
<path d="M323,99.7l29.6,80.9h-58.7L323,99.7z M250.9,234.8h23.6l12.2-34.4h73.1l12.6,34.4h24.8L336.8,76.3h-26.3L250.9,234.8z"/>
<polygon points="175.8,76.3 149.3,76.3 119.5,209.1 88.5,76.3 63.6,76.3 104.5,234.8 131.9,234.8 162.5,105 193.5,234.8 
	220.9,234.8 261.1,76.3 237.4,76.3 207.6,209.1 "/>
</svg>
