<?xml version="1.0" encoding="utf-8"?>
<!-- Generator: Adobe Illustrator 23.1.1, SVG Export Plug-In . SVG Version: 6.00 Build 0)  -->
<svg version="1.1" id="Layer_1" xmlns="http://www.w3.org/2000/svg" xmlns:xlink="http://www.w3.org/1999/xlink" x="0px" y="0px"
	 viewBox="0 0 100 100" style="enable-background:new 0 0 100 100;" xml:space="preserve">
<polygon style="fill:#010101;" points="0,31.2 0,68.8 6.3,68.8 6.3,75 12.5,75 12.5,87.5 18.7,87.5 18.7,93.7 25,93.7 25,100 
	75,100 75,93.7 81.3,93.7 81.3,87.5 87.5,87.5 87.5,75 93.7,75 93.7,68.8 100,68.8 100,31.2 93.7,31.2 93.7,25 87.5,25 87.5,18.7 
	81.3,18.7 81.3,12.5 75,12.5 75,6.3 62.5,6.3 62.5,0 37.5,0 37.5,6.3 25,6.3 25,12.5 18.7,12.5 18.7,18.7 12.5,18.7 12.5,25 6.3,25 
	6.3,31.2 "/>
<polygon style="fill:#C1282D;" points="6.3,68.8 18.7,68.8 18.7,62.5 81.3,62.5 81.3,68.8 93.7,68.8 93.7,37.5 87.5,37.5 87.5,25 
	81.3,25 81.3,18.7 75,18.7 75,12.5 62.5,12.5 62.5,6.3 37.5,6.3 37.5,12.5 25,12.5 25,18.7 18.7,18.7 18.7,25 12.5,25 12.5,37.5 
	6.3,37.5 "/>
<polygon style="fill:#FFFFFF;" points="18.8,75 18.8,87.5 25,87.5 25,93.7 75,93.7 75,87.5 81.3,87.5 81.3,75 75,75 75,68.8 
	62.5,68.8 62.5,81.3 56.3,81.3 56.3,68.8 43.8,68.8 43.8,81.3 37.5,81.3 37.5,68.8 25,68.8 25,75 "/>
<polygon style="fill:#FFFFFF;" points="18.7,18.7 18.7,31.2 25,31.2 25,50 18.7,50 18.7,56.2 6.3,56.2 6.3,68.8 18.7,68.8 
	18.7,62.5 37.5,62.5 37.5,56.2 31.2,56.2 31.2,37.5 37.5,37.5 37.5,31.2 62.5,31.2 62.5,37.5 68.8,37.5 68.8,56.2 62.5,56.2 
	62.5,62.5 81.3,62.5 81.3,68.8 93.7,68.8 93.7,56.2 87.5,56.2 81.3,56.2 81.3,50 75,50 75,31.2 81.3,31.2 81.3,25 81.3,18.7 
	75,18.7 75,25 62.5,25 62.5,18.7 56.2,18.7 56.2,6.3 43.8,6.3 43.8,18.7 37.5,18.7 37.5,25 25,25 25,18.7 "/>
</svg>
