<?xml version="1.0" encoding="utf-8"?>
<!-- Generator: Adobe Illustrator 23.1.1, SVG Export Plug-In . SVG Version: 6.00 Build 0)  -->
<svg version="1.1" id="Layer_1" xmlns="http://www.w3.org/2000/svg" xmlns:xlink="http://www.w3.org/1999/xlink" x="0px" y="0px"
	 viewBox="0 0 450.2 319.3" style="enable-background:new 0 0 450.2 319.3;" xml:space="preserve">
<style type="text/css">
	.st0{fill:#FFFFFF;stroke:#000000;stroke-miterlimit:10;}
</style>
<path class="st0" d="M0.3,318.9c18.9-14.6,36.5-26.7,53.1-36.6s32.1-17.7,46.9-23.7s28.6-10.4,42-13.4s26-4.8,38.3-5.8
	s24.2-1,36-0.7s23.3,1,34.9,1.7c11.6,0.7,23.3,1.4,35.2,1.6s24.1,0,36.7-1.1c14.7-1.3,28.3-4.5,40.6-9s23.5-10.5,33.3-17.5
	s18.4-15,25.5-23.5s13-17.8,17.3-27.1s7.3-18.9,8.7-28.2s1.3-18.4-0.4-26.9s-5-16.3-10-23c-5-6.8-11.6-12.5-20-16.7
	s-17.6-8.9-27.4-13.8c-9.8-4.9-20.3-9.9-31.1-14.9s-22.2-9.9-33.7-14.4s-23.3-8.8-35.1-12.4c-11.8-3.6-23.7-6.7-35.4-8.9
	S232.2,0.8,221,0.5S198.9,1,188.5,3.2s-20.2,5.6-29.2,10.7"/>
</svg>
