<?xml version="1.0" encoding="utf-8"?>
<!-- Generator: Adobe Illustrator 23.1.1, SVG Export Plug-In . SVG Version: 6.00 Build 0)  -->
<svg version="1.1" id="Layer_1" xmlns="http://www.w3.org/2000/svg" xmlns:xlink="http://www.w3.org/1999/xlink" x="0px" y="0px"
	 viewBox="0 0 250 250" style="enable-background:new 0 0 250 250;" xml:space="preserve">
<path d="M249,118.7c-0.1-2.1-0.3-4.2-0.5-6.3c-0.2-2.1-0.5-4.1-0.8-6.2c-0.3-2-0.7-4.1-1.1-6.1c-0.4-2-0.9-4-1.4-6s-1.1-4-1.7-5.9
	c-0.6-2-1.3-3.9-2-5.8c-0.7-1.9-1.4-3.7-2.2-5.6c-0.8-1.8-1.6-3.7-2.5-5.5c-0.8-1.7-1.7-3.5-2.7-5.3s-2-3.5-3-5.2s-2.1-3.4-3.2-5
	c-1.1-1.7-2.3-3.3-3.5-4.9c-1.2-1.6-2.4-3.2-3.7-4.7s-2.6-3-3.9-4.5c-1.3-1.5-2.7-2.9-4.1-4.3c-1.4-1.4-2.8-2.8-4.3-4.1
	s-3-2.6-4.5-3.9c-1.5-1.3-3.1-2.5-4.7-3.7s-3.3-2.4-4.9-3.5c-1.6-1.1-3.3-2.2-5-3.2c-1.7-1-3.5-2.1-5.2-3c-1.7-0.9-3.5-1.8-5.3-2.7
	c-1.8-0.9-3.7-1.7-5.5-2.5c-1.8-0.8-3.7-1.5-5.6-2.2c-1.9-0.7-3.9-1.4-5.8-2c-2-0.6-3.9-1.2-5.9-1.7s-4-1-6-1.4s-4.1-0.8-6.1-1.1
	c-2-0.3-4.1-0.6-6.2-0.8c-2.1-0.2-4.2-0.4-6.3-0.5c-2.1-0.1-4.3-0.2-6.4-0.2S120.7,1,118.6,1c-2.1,0.1-4.2,0.3-6.3,0.5
	c-2.1,0.2-4.1,0.5-6.2,0.8c-2,0.3-4.1,0.7-6.1,1.1c-2,0.4-4,0.9-6,1.4s-4,1.1-5.9,1.7c-2,0.6-3.9,1.3-5.8,2
	c-1.9,0.7-3.7,1.4-5.6,2.2c-1.8,0.8-3.7,1.6-5.5,2.5c-1.7,0.8-3.5,1.7-5.3,2.7c-1.8,1-3.5,2-5.2,3s-3.4,2.1-5,3.2
	c-1.7,1.1-3.3,2.3-4.9,3.5c-1.6,1.2-3.2,2.4-4.7,3.7s-3,2.6-4.5,3.9c-1.5,1.3-2.9,2.7-4.3,4.1c-1.4,1.4-2.8,2.8-4.1,4.3
	s-2.6,3-3.9,4.5s-2.5,3.1-3.7,4.7c-1.2,1.6-2.4,3.3-3.5,4.9c-1.1,1.6-2.2,3.3-3.2,5c-1,1.7-2.1,3.5-3,5.2c-0.9,1.7-1.8,3.5-2.7,5.3
	c-0.9,1.8-1.7,3.7-2.5,5.5c-0.8,1.8-1.5,3.7-2.2,5.6s-1.4,3.9-2,5.8c-0.6,2-1.2,3.9-1.7,5.9s-1,4-1.4,6c-0.4,2-0.8,4.1-1.1,6.1
	s-0.6,4.1-0.8,6.2s-0.4,4.2-0.5,6.3c-0.1,2.1-0.2,4.3-0.2,6.4c0,2.1,0.1,4.3,0.2,6.4c0.1,2.1,0.3,4.2,0.5,6.3
	c0.2,2.1,0.5,4.1,0.8,6.2c0.3,2,0.7,4.1,1.1,6.1c0.4,2,0.9,4,1.4,6s1.1,4,1.7,6s1.3,3.9,2,5.8c0.7,1.9,1.4,3.7,2.2,5.6
	c0.8,1.8,1.6,3.7,2.5,5.5c0.8,1.7,1.7,3.5,2.7,5.3s2,3.5,3,5.2c1,1.7,2.1,3.4,3.2,5c1.1,1.7,2.3,3.3,3.5,4.9s2.4,3.2,3.7,4.7
	s2.6,3,3.9,4.5c1.3,1.5,2.7,2.9,4.1,4.3c1.4,1.4,2.8,2.8,4.3,4.1c1.5,1.3,3,2.6,4.5,3.9s3.1,2.5,4.7,3.7s3.3,2.4,4.9,3.5
	c1.6,1.1,3.3,2.2,5,3.2c1.7,1,3.5,2.1,5.2,3c1.7,0.9,3.5,1.8,5.3,2.7c1.8,0.9,3.7,1.7,5.5,2.5c1.8,0.8,3.7,1.5,5.6,2.2
	s3.9,1.4,5.8,2c2,0.6,3.9,1.2,5.9,1.7s4,1,6,1.4c2,0.4,4.1,0.8,6.1,1.1s4.1,0.6,6.2,0.8c2.1,0.2,4.2,0.4,6.3,0.5
	c2.1,0.1,4.3,0.2,6.4,0.2s4.3-0.1,6.4-0.2c2.1-0.1,4.2-0.3,6.3-0.5c2.1-0.2,4.1-0.5,6.2-0.8c2-0.3,4.1-0.7,6.1-1.1
	c2-0.4,4-0.9,6-1.4s4-1.1,5.9-1.7c2-0.6,3.9-1.3,5.8-2s3.7-1.4,5.6-2.2c1.8-0.8,3.7-1.6,5.5-2.5c1.7-0.8,3.5-1.7,5.3-2.7
	c1.8-1,3.5-2,5.2-3c1.7-1,3.4-2.1,5-3.2c1.7-1.1,3.3-2.3,4.9-3.5c1.6-1.2,3.2-2.4,4.7-3.7s3-2.6,4.5-3.9c1.5-1.3,2.9-2.7,4.3-4.1
	s2.8-2.8,4.1-4.3s2.6-3,3.9-4.5s2.5-3.1,3.7-4.7c1.2-1.6,2.4-3.3,3.5-4.9c1.1-1.6,2.2-3.3,3.2-5c1-1.7,2.1-3.5,3-5.2
	c0.9-1.7,1.8-3.5,2.7-5.3c0.9-1.8,1.7-3.7,2.5-5.5c0.8-1.8,1.5-3.7,2.2-5.6s1.4-3.9,2-5.8c0.6-2,1.2-3.9,1.7-5.9s1-4,1.4-6
	c0.4-2,0.8-4.1,1.1-6.1c0.3-2,0.6-4.1,0.8-6.2c0.2-2.1,0.4-4.2,0.5-6.3c0.1-2.1,0.2-4.3,0.2-6.4C249.2,123,249.1,120.8,249,118.7z
	 M175,175.1h-12.5H150h-12.5H125h-12.5H100H87.5H75v-12.5v-12.5v-12.5v-12.5v-12.5v-12.5V87.6V75.1h12.5H100h12.5H125h12.5H150h12.5
	H175v12.5v12.5v12.5v12.5v12.5v12.5v12.5V175.1z"/>
</svg>
